<svg width="145" height="145" viewBox="0 0 145 145" fill="none" xmlns="http://www.w3.org/2000/svg">
<path fill-rule="evenodd" clip-rule="evenodd" d="M72.5 145C112.541 145 145 112.541 145 72.5C145 32.4594 112.541 0 72.5 0C32.4594 0 0 32.4594 0 72.5C0 112.541 32.4594 145 72.5 145ZM126.889 83.7053C127.556 80.8949 128.015 78.0039 128.249 75.0494C128.309 75.0517 128.368 75.0529 128.428 75.0529C130.944 75.0529 132.983 73.0138 132.983 70.4985C132.983 67.9831 130.944 65.9441 128.428 65.9441C128.368 65.9441 128.309 65.9452 128.249 65.9475C128.033 63.2091 127.622 60.5252 127.032 57.9095C127.09 57.8937 127.149 57.8767 127.207 57.8584C129.609 57.1091 130.948 54.5552 130.198 52.154C129.449 49.7529 126.895 48.4139 124.494 49.1632C124.435 49.1816 124.377 49.201 124.319 49.2216C123.216 46.486 121.907 43.8559 120.411 41.3503C120.461 41.3176 120.51 41.2837 120.56 41.2487C122.61 39.7915 123.09 36.9482 121.633 34.898C120.176 32.8478 117.333 32.3671 115.282 33.8244C115.232 33.8599 115.183 33.8963 115.135 33.9334C113.242 31.6769 111.178 29.5694 108.962 27.6309C108.999 27.585 109.035 27.5382 109.07 27.4905C110.572 25.4727 110.154 22.6196 108.136 21.1177C106.118 19.6159 103.265 20.0341 101.763 22.0519C101.726 22.1018 101.69 22.1522 101.655 22.2031C99.1938 20.6627 96.606 19.3053 93.911 18.15C93.9323 18.094 93.9526 18.0374 93.9719 17.9802C94.7754 15.5966 93.4945 13.013 91.1109 12.2096C88.7274 11.4061 86.1438 12.687 85.3403 15.0706C85.3203 15.1299 85.3016 15.1894 85.2841 15.249C82.5042 14.5576 79.6435 14.0705 76.7189 13.8046C76.7219 13.7451 76.7237 13.6852 76.7244 13.6251C76.7536 11.1099 74.7382 9.04736 72.2231 9.01823C69.7079 8.98911 67.6454 11.0044 67.6162 13.5196C67.6155 13.5795 67.616 13.6392 67.6176 13.6986C64.5715 13.9037 61.5911 14.3483 58.6951 15.0139C58.6791 14.9555 58.6619 14.8971 58.6435 14.8388C57.8851 12.4406 55.3261 11.1112 52.9279 11.8695C50.5296 12.6279 49.2002 15.1869 49.9586 17.5852C49.9772 17.6442 49.997 17.7025 50.0178 17.7602C47.2918 18.8717 44.6712 20.1884 42.1754 21.6911C42.1424 21.641 42.1083 21.5914 42.0731 21.5422C40.6083 19.4973 37.7632 19.0271 35.7184 20.4918C33.6735 21.9565 33.2033 24.8016 34.668 26.8465C34.7036 26.8962 34.7401 26.945 34.7773 26.9929C32.5322 28.8899 30.4359 30.9575 28.5084 33.1757C28.4619 33.1385 28.4145 33.1021 28.3662 33.0664C26.343 31.5719 23.4913 32.0006 21.9969 34.0238C20.5024 36.0471 20.9311 38.8987 22.9543 40.3932C23.0039 40.4298 23.0539 40.4652 23.1044 40.4995C21.5729 42.9648 20.2246 45.5558 19.0784 48.2534C19.0216 48.232 18.9642 48.2116 18.9061 48.1922C16.5195 47.3977 13.9408 48.6884 13.1463 51.0749C12.3518 53.4615 13.6425 56.0402 16.029 56.8347C16.0876 56.8542 16.1464 56.8725 16.2052 56.8895C15.5196 59.6844 15.0405 62.5603 14.7847 65.5003C14.7252 65.4975 14.6654 65.4959 14.6052 65.4954C12.09 65.476 10.0352 67.4993 10.0158 70.0145C9.9964 72.5298 12.0197 74.5845 14.5349 74.604C14.5949 74.6044 14.6546 74.6037 14.714 74.6019C14.9302 77.6381 15.3846 80.6084 16.0584 83.4944C15.9997 83.5107 15.941 83.5282 15.8824 83.5469C13.487 84.3144 12.1672 86.8783 12.9347 89.2737C13.7021 91.6691 16.2661 92.9889 18.6615 92.2214C18.72 92.2027 18.7779 92.1829 18.8351 92.162C19.9552 94.882 21.2799 97.4962 22.79 99.9853C22.7397 100.019 22.6898 100.053 22.6404 100.089C20.6009 101.561 20.1411 104.408 21.6133 106.447C23.0855 108.487 25.9322 108.947 27.9717 107.475C28.021 107.439 28.0693 107.403 28.1167 107.366C30.0139 109.596 32.0801 111.678 34.2954 113.592C34.2576 113.64 34.2205 113.688 34.1842 113.738C32.6971 115.767 33.1362 118.617 35.1649 120.104C37.1935 121.591 40.0436 121.152 41.5307 119.123C41.5663 119.074 41.6008 119.025 41.6342 118.976C44.111 120.505 46.7138 121.85 49.4234 122.99C49.4019 123.048 49.3814 123.106 49.3621 123.165C48.5766 125.555 49.877 128.128 52.2665 128.914C54.656 129.699 57.2299 128.399 58.0154 126.009C58.0344 125.952 58.0522 125.893 58.0688 125.835C60.8782 126.515 63.7689 126.986 66.7236 127.231C66.7211 127.291 66.7197 127.35 66.7194 127.41C66.7097 129.926 68.7409 131.973 71.2562 131.982C73.7715 131.992 75.8185 129.961 75.8282 127.446C75.8284 127.386 75.8275 127.326 75.8254 127.267C78.8631 127.038 81.8343 126.572 84.7203 125.885C84.7293 125.917 84.7387 125.949 84.7484 125.981C84.7581 126.013 84.7681 126.044 84.7785 126.076C85.564 128.465 88.1378 129.766 90.5274 128.98C92.9169 128.195 94.2173 125.621 93.4318 123.231C93.4142 123.178 93.3958 123.125 93.3765 123.073C96.1006 121.938 98.7177 120.597 101.208 119.071C101.244 119.124 101.281 119.177 101.32 119.23C102.807 121.259 105.657 121.698 107.686 120.211C109.714 118.724 110.153 115.873 108.666 113.845C108.633 113.799 108.599 113.754 108.564 113.711C110.776 111.811 112.841 109.745 114.738 107.531C114.786 107.569 114.834 107.605 114.884 107.641C116.918 109.121 119.766 108.672 121.246 106.637C122.725 104.603 122.276 101.755 120.242 100.275C120.222 100.261 120.202 100.246 120.182 100.232L120.139 100.202C120.124 100.192 120.108 100.182 120.093 100.172C121.613 97.6876 122.948 95.0781 124.079 92.3622C124.136 92.3833 124.194 92.4034 124.252 92.4224C126.645 93.1988 129.214 91.8888 129.99 89.4963C130.767 87.1038 129.457 84.5349 127.064 83.7584C127.006 83.7395 126.947 83.7218 126.889 83.7053ZM126.889 83.7053C126.18 86.6887 125.236 89.5812 124.079 92.3622C121.797 91.5203 120.569 89.0184 121.326 86.6845C122.084 84.3504 124.547 83.0466 126.889 83.7053ZM120.093 100.172C118.071 98.8182 115.324 99.2941 113.88 101.279C112.436 103.264 112.829 106.024 114.738 107.531C116.711 105.23 118.504 102.77 120.093 100.172ZM108.564 113.711C107.052 111.797 104.284 111.41 102.3 112.864C100.324 114.313 99.8565 117.055 101.208 119.071C103.805 117.479 106.264 115.685 108.564 113.711ZM93.3765 123.073C92.5314 120.785 90.0191 119.559 87.6829 120.327C85.3568 121.092 84.0628 123.551 84.7203 125.885C87.7036 125.176 90.5958 124.231 93.3765 123.073ZM75.8254 127.267C75.7407 124.834 73.7467 122.883 71.2914 122.874C68.8362 122.864 66.8272 124.799 66.7236 127.231C68.2979 127.362 69.8903 127.428 71.4984 127.428C72.9541 127.428 74.3971 127.374 75.8254 127.267ZM58.0688 125.835C58.7371 123.496 57.4426 121.027 55.111 120.261C52.7803 119.494 50.2743 120.713 49.4234 122.99C52.1999 124.159 55.0886 125.115 58.0688 125.835ZM41.6342 118.976C42.9958 116.959 42.5301 114.209 40.55 112.757C38.5708 111.306 35.8098 111.689 34.2954 113.592C36.5891 115.574 39.0427 117.376 41.6342 118.976ZM28.1167 107.366C30.0323 105.865 30.4355 103.106 28.9989 101.116C27.5623 99.126 24.817 98.6399 22.79 99.9853C24.3699 102.59 26.1528 105.057 28.1167 107.366ZM18.8351 92.162C21.1201 91.3288 22.3578 88.8315 21.6092 86.4947C20.8605 84.1578 18.4021 82.8447 16.0584 83.4944C16.7558 86.4808 17.6882 89.3769 18.8351 92.162ZM14.714 74.6019C17.147 74.5267 19.1054 72.5402 19.1244 70.0849C19.1433 67.6297 17.216 65.6134 14.7847 65.5003C14.6415 67.1473 14.5684 68.8143 14.5684 70.4985C14.5684 71.8783 14.6174 73.2467 14.714 74.6019ZM16.2052 56.8895C18.5412 57.5651 21.0139 56.2799 21.7888 53.952C22.564 51.6235 21.3542 49.1121 19.0784 48.2534C17.9002 51.0263 16.9356 53.9119 16.2052 56.8895ZM23.1044 40.4995C25.1164 41.8657 27.8658 41.4094 29.3236 39.4357C30.7824 37.4608 30.4088 34.6965 28.5084 33.1757C26.5201 35.464 24.7114 37.9126 23.1044 40.4995ZM34.7773 26.9929C36.2707 28.913 39.0276 29.326 41.0227 27.8969C43.0183 26.4673 43.5143 23.7231 42.1754 21.6911C39.5657 23.2623 37.0924 25.0369 34.7773 26.9929ZM50.0178 17.7602C50.8428 20.0476 53.3349 21.2942 55.6742 20.5545C58.0142 19.8145 59.3366 17.3604 58.6951 15.0139C55.7059 15.7009 52.8067 16.6231 50.0178 17.7602ZM67.6176 13.6986C67.6835 16.1319 69.6624 18.098 72.1176 18.1264C74.5726 18.1549 76.5964 16.2354 76.7189 13.8046C74.9996 13.6483 73.2583 13.5684 71.4984 13.5684C70.1941 13.5684 68.9 13.6123 67.6176 13.6986ZM85.2841 15.249C84.6013 17.5817 85.8771 20.0577 88.2013 20.8412C90.5276 21.6253 93.0445 20.424 93.911 18.15C91.1416 16.9627 88.2591 15.9888 85.2841 15.249ZM101.655 22.2031C100.283 24.2099 100.73 26.96 102.698 28.4247C104.668 29.891 107.434 29.527 108.962 27.6309C106.68 25.6351 104.237 23.8185 101.655 22.2031ZM115.135 33.9334C113.21 35.4198 112.787 38.1749 114.209 40.1751C115.631 42.1761 118.374 42.682 120.411 41.3503C118.849 38.7349 117.083 36.2553 115.135 33.9334ZM124.319 49.2216C122.028 50.0377 120.772 52.5253 121.503 54.8676C122.234 57.2102 124.683 58.5419 127.032 57.9095C126.356 54.9174 125.445 52.0146 124.319 49.2216ZM128.249 65.9475C125.817 66.0416 123.874 68.0432 123.874 70.4985C123.874 72.9538 125.817 74.9553 128.249 75.0494C128.368 73.5481 128.428 72.0303 128.428 70.4985C128.428 68.9666 128.368 67.4489 128.249 65.9475Z" fill="#D9D9D9"/>
<circle cx="72" cy="13" r="5" fill="#FAFF05"/>
</svg>
